<svg fill="none" height="445" viewBox="0 0 2302 445" width="2302" xmlns="http://www.w3.org/2000/svg" xmlns:xlink="http://www.w3.org/1999/xlink"><clipPath id="a"><path d="m31.5 31.5h382v382h-382z"/></clipPath><g fill="#000"><g clip-path="url(#a)"><path d="m335.964 145.544-226.928 130.331v-130.331l113.463-66.6977z"/><path d="m335.965 248.276-113.464-65.931-113.463 65.931v100.077c0 13.678 14.803 22.232 26.653 15.398l200.276-115.472z" opacity=".6"/></g><path d="m500.851 154.461c1.827-.016 3.148-1.6 3.124-3.337-.096-8.388-.224-16.752 2.7-25.123 6.368-18.257 22.285-25.052 40.662-25.148.155 0 24.499.027 73.032.08 5.912.008 6.256 4.594 6.281 9.116.037 7.727.026 15.463-.033 23.211-.056 6.331-4.061 6.859-9.644 6.851-9.303-.021-25.61-.029-48.921-.024-1.239 0-2.539.582-3.901 1.745-2.203 1.889-1.963 5.554-1.915 8.444.064 3.473 2.019 4.201 5.327 4.209 28.758.016 69.968.011 123.628-.016 4.117-.005 6.587.144 7.41.449 3.652 1.352 3.789 4.522 3.789 8.443-.016 80.709-.014 135.576.008 164.602 0 4.899-2.206 7.356-6.617 7.372-10.697.037-24.229.042-40.598.016-7.201-.008-11.07.072-11.062-7.908.021-18.381.021-60.558 0-126.529 0-3.052-1.627-4.578-4.879-4.578-36.646-.048-60.875-.061-72.688-.04-3.717.008-4.326 1.601-4.326 5.139 0 18.877.006 60.432.016 124.664 0 5.066-.552 9.172-6.312 9.204-12.763.074-27.377.085-43.842.032-2.235-.008-4.558-.056-6.096-1.529-1.335-1.275-2.003-2.695-2.003-4.258-.016-73.484-.018-116.639-.008-129.466.008-3.234-2.026-3.826-4.95-3.802-1.282.011-9.549.022-24.801.032-6.609 0-7.37-3.89-7.129-9.788.026-.656.018-8.505-.024-23.547-.016-6.259 1.738-8.5 7.81-8.492 12.155.022 20.809.014 25.962-.024z"/><path d="m702.742 137.718c0 1.583-.63 3.102-1.751 4.222-1.12 1.12-2.64 1.749-4.225 1.749h-46.99c-.785 0-1.562-.155-2.287-.455s-1.384-.74-1.939-1.294c-.555-.555-.995-1.213-1.295-1.937-.301-.725-.455-1.501-.455-2.285v-30.862c0-.784.154-1.56.455-2.285.3-.724.74-1.382 1.295-1.937.555-.554 1.214-.994 1.939-1.294s1.502-.455 2.287-.455h46.99c1.585 0 3.105.629 4.225 1.749 1.121 1.12 1.751 2.639 1.751 4.222z"/><path d="m1335.35 329.308c0 1.603-.64 3.14-1.78 4.273-1.13 1.133-2.67 1.77-4.27 1.77h-46.21c-1.6 0-3.14-.637-4.27-1.77-1.14-1.133-1.78-2.67-1.78-4.273v-222.388c0-1.603.64-3.14 1.78-4.273 1.13-1.133 2.67-1.77 4.27-1.77h46.21c1.6 0 3.14.637 4.27 1.77 1.14 1.133 1.78 2.67 1.78 4.273z"/><path d="m1436.31 260.197c-2.27-.016-4.16 1.056-4.16 3.401.02 18.126.01 39.629-.03 64.509 0 4.776-2.36 7.182-7.06 7.22-6.05.053-20.42.064-43.12.032-4.85-.008-8.94.392-10.62-4.138-.71-1.921-.49-5.547-.49-7.075.03-138.847.02-210.017-.02-213.512-.07-5.843.9-9.757 7.42-9.765 33.7-.01 88.31.006 163.82.048 31.71.016 66.08 9.549 82 39.514 7.84 14.759 10.15 33.071 8.38 49.871-2.98 28.164-18.9 48.101-45.56 57.345-2.84.982-4.49 1.796-4.96 2.441-1.82 2.546-.58 4.386 1.21 6.843 22.66 31.118 39.68 54.457 51.07 70.016 3.11 4.266 2.43 8.396-3.62 8.404-13.53.01-29.02.016-46.45.016-8.06 0-12.03.528-16.52-5.491-25.9-34.762-42.15-56.558-48.73-65.389-2.87-3.842-5.95-4.282-10.94-4.282-38.85.053-62.72.051-71.62-.008zm-4.16-79.828c0 14.092.05 24.064.13 29.918.04 2.262 1.06 3.396 3.06 3.401 20.96.021 53.93.032 98.91.032 22.05 0 37.77-9.14 37.78-33.335 0-24.187-15.72-33.335-37.77-33.343-44.99-.011-77.95-.008-98.91.008-2 .005-3.02 1.139-3.06 3.402-.09 5.848-.13 15.82-.14 29.917z"/><path d="m1732.91 147.354c-2.07-.008-3.76 1.225-3.76 3.33-.02 12.048-.02 25.915 0 41.602 0 2.69 1.21 3.706 3.89 3.786 1.01.027 2.63.04 4.87.04 15.53-.005 65.17-.008 148.92-.008 4.99 0 8.82-.048 9.8 4.946.13.646.19 2.281.17 4.907-.04 6.002-.03 13.414.03 22.234.04 5.746-.61 9.732-7.11 9.732-104.09-.005-156.29-.008-156.62-.008-3.34.008-3.98 1.793-3.98 4.874.03 26.535.03 40.317-.01 41.347-.12 3.697 1.64 4.354 5.25 4.354 88.41.01 143.74.013 165.98.008 6.63 0 6.84 4.218 6.85 10.004 0 13.921-.01 23.811-.02 29.669-.02 7.564-5.2 7.204-11.68 7.204-111.28-.022-182.54-.019-213.75.008-7.38.008-12.91.688-12.91-8.02 0-124.515.01-197.75.02-219.707 0-7.339 6.12-6.819 11.65-6.811 21.16.048 94.3.056 219.42.024 6.94 0 7.3 3.882 7.29 9.989-.05 18.91-.06 28.711-.05 29.405.05 3.02-.94 5.114-2.97 6.283-.96.549-3.34.824-7.16.824-94.35.032-149.05.027-164.12-.016z"/><path d="m2077.81 271.714c1.28 0 2.23-.648 2.85-1.945 34.15-71.216 60.27-125.648 78.37-163.297 2.74-5.715 7.69-5.611 14.14-5.603 13.6.016 29.06.024 46.38.024 6.52.008 10.05 3.746 6.87 10.181-67.13 135.581-102.69 207.395-106.68 215.441-2.86 5.786-6.24 8.82-13.14 8.844-2.29.005-11.89.005-28.8 0-16.91 0-26.51-.003-28.8-.008-6.9-.024-10.28-3.058-13.14-8.844-3.98-8.052-39.52-79.876-106.62-215.473-3.18-6.435.36-10.173 6.88-10.181 17.31.006 32.77.003 46.38-.008 6.44-.008 11.39-.112 14.14 5.603 18.08 37.654 44.19 92.095 78.32 163.321.62 1.297 1.57 1.945 2.85 1.945z"/><path d="m795.945 175.575c1.875 1.2 3.645-.064 5.007-1.713 13.706-16.535 37.265-22.65 57.996-23.258 4.492-.134 16.443-.16 35.856-.08 24.392.096 48.864 6.114 65.206 25.211 13.818 16.135 18.328 37.817 18.352 58.57.043 29.87.04 61.415-.008 94.635-.008 5.898-4.181 6.419-9.348 6.419-23.001.032-37.231.01-42.689-.064-5.623-.072-6.24-4.106-6.232-9.124.043-24.635.04-53.056-.008-85.263-.024-18.312-8.259-34.015-25.954-40.362-5.736-2.059-12.518-3.119-20.347-3.177-7.397-.054-14.769-.075-22.117-.064-9.469.016-15.41.152-17.824.408-24.408 2.593-39.172 16.143-39.188 41.603-.032 54.931-.032 84.486 0 88.663.064 8.052-5.303 7.372-12.216 7.388-23.578.032-36.91 0-39.997-.096-5.575-.176-6.112-4.13-6.112-9.1.011-62.722.011-115.975 0-159.76 0-4.488.112-7.081.337-7.78 1.321-4.042 4.614-4.106 8.747-4.138 5.859-.042 20.256-.024 43.193.056 5.351.024 6.128 4.314 6.048 8.932-.053 3.245-.045 6.531.024 9.861.022.96.446 1.705 1.274 2.233z"/><path d="m1186 318.583c-.2-2.561-2.43-3.922-4.33-1.713-8.37 9.781-20.03 15.703-32.37 18.625-9.79 2.31-19.07 3.545-27.83 3.705-9.65.176-26.2.227-49.65.152-28.38-.088-57.29-10.452-63.88-41.362-1.75-8.174-1.74-16.464.03-24.867 6.24-29.67 36.06-41.067 63.06-42.155 13.45-.539 49.08-1.892 106.91-4.058 3.29-.123 5.59-1.491 6.9-4.106.87-1.707 1.09-4.485.68-8.332-1.82-17.223-18.08-21.641-32.59-22.098-2.32-.069-14.91-.098-37.77-.088-12.43.008-21.46-.072-30.99 3.922-7.37 3.089-12.44 8.142-15.2 15.159-2 5.082-2.78 9.756-9.78 9.796-10.6.054-24.48.07-41.64.048-5.21-.01-7.39-2.505-6.56-7.483 2.3-13.809 8.16-25.705 17.59-35.688 18.77-19.873 47.18-27.012 73.9-27.428 9.71-.155 27.06-.179 52.06-.072 38.3.168 79.87 13.654 87.86 56.609.92 4.968 1.34 13.422 1.25 25.363-.07 9.061-.08 40.741-.03 95.043 0 6.019-2.41 7.94-8.37 7.86-5.09-.07-19.24-.086-42.44-.048-6.06.008-6.96-3.978-6.83-9.397.1-3.857.1-6.32.02-7.387zm-.35-54.464c-.14-3.354-2.11-4.931-5.45-4.787-7.7.342-38.33 1.567-91.9 3.674-9.26.368-21.88 3.282-23.86 14.223-1.47 8.11.67 14.273 6.42 18.488 4.37 3.193 11.4 4.762 16.8 4.786 16.02.059 33.11.075 51.26.048 11.97-.016 24.74-1.321 34.67-8.78 8.56-6.43 12.58-15.647 12.06-27.652z"/></g></svg>