<svg width="2302" height="445" viewBox="0 0 2302 445" fill="none" xmlns="http://www.w3.org/2000/svg">
<g clip-path="url(#clip0_56_12)">
<path d="M335.964 145.545L109.036 275.875V145.545L222.499 78.8463L335.964 145.545Z" fill="#CCFF00"/>
<path opacity="0.6" d="M335.965 248.277L222.501 182.345L109.038 248.277V348.353C109.038 362.032 123.841 370.585 135.691 363.751L335.967 248.279L335.965 248.277Z" fill="#CCFF00"/>
</g>
<path d="M500.851 154.461C502.678 154.445 503.999 152.861 503.975 151.124C503.879 142.736 503.751 134.372 506.675 126.001C513.043 107.744 528.96 100.949 547.337 100.853C547.492 100.853 571.836 100.88 620.369 100.933C626.281 100.941 626.625 105.527 626.65 110.049C626.687 117.776 626.676 125.512 626.617 133.26C626.561 139.591 622.556 140.119 616.973 140.111C607.67 140.09 591.363 140.082 568.052 140.087C566.813 140.087 565.513 140.669 564.151 141.832C561.948 143.721 562.188 147.386 562.236 150.276C562.3 153.749 564.255 154.477 567.563 154.485C596.321 154.501 637.531 154.496 691.191 154.469C695.308 154.464 697.778 154.613 698.601 154.918C702.253 156.27 702.39 159.44 702.39 163.361C702.374 244.07 702.376 298.937 702.398 327.963C702.398 332.862 700.192 335.319 695.781 335.335C685.084 335.372 671.552 335.377 655.183 335.351C647.982 335.343 644.113 335.423 644.121 327.443C644.142 309.062 644.142 266.885 644.121 200.914C644.121 197.862 642.494 196.336 639.242 196.336C602.596 196.288 578.367 196.275 566.554 196.296C562.837 196.304 562.228 197.897 562.228 201.435C562.228 220.312 562.234 261.867 562.244 326.099C562.244 331.165 561.692 335.271 555.932 335.303C543.169 335.377 528.555 335.388 512.09 335.335C509.855 335.327 507.532 335.279 505.994 333.806C504.659 332.531 503.991 331.111 503.991 329.548C503.975 256.064 503.973 212.909 503.983 200.082C503.991 196.848 501.957 196.256 499.033 196.28C497.751 196.291 489.484 196.302 474.232 196.312C467.623 196.312 466.862 192.422 467.103 186.524C467.129 185.868 467.121 178.019 467.079 162.977C467.063 156.718 468.817 154.477 474.889 154.485C487.044 154.507 495.698 154.499 500.851 154.461Z" fill="#CCFF00"/>
<path d="M702.742 137.718C702.742 139.301 702.112 140.82 700.991 141.94C699.871 143.06 698.351 143.689 696.766 143.689H649.776C648.991 143.689 648.214 143.534 647.489 143.234C646.764 142.934 646.105 142.494 645.55 141.94C644.995 141.385 644.555 140.727 644.255 140.003C643.954 139.278 643.8 138.502 643.8 137.718V106.856C643.8 106.072 643.954 105.296 644.255 104.571C644.555 103.847 644.995 103.189 645.55 102.634C646.105 102.08 646.764 101.64 647.489 101.34C648.214 101.04 648.991 100.885 649.776 100.885H696.766C698.351 100.885 699.871 101.514 700.991 102.634C702.112 103.754 702.742 105.273 702.742 106.856V137.718Z" fill="#CCFF00"/>
<path d="M1335.35 329.308C1335.35 330.911 1334.71 332.448 1333.57 333.581C1332.44 334.714 1330.9 335.351 1329.3 335.351H1283.09C1281.49 335.351 1279.95 334.714 1278.82 333.581C1277.68 332.448 1277.04 330.911 1277.04 329.308V106.92C1277.04 105.317 1277.68 103.78 1278.82 102.647C1279.95 101.514 1281.49 100.877 1283.09 100.877H1329.3C1330.9 100.877 1332.44 101.514 1333.57 102.647C1334.71 103.78 1335.35 105.317 1335.35 106.92V329.308Z" fill="#CCFF00"/>
<path d="M1436.31 260.197C1434.04 260.181 1432.15 261.253 1432.15 263.598C1432.17 281.724 1432.16 303.227 1432.12 328.107C1432.12 332.883 1429.76 335.289 1425.06 335.327C1419.01 335.38 1404.64 335.391 1381.94 335.359C1377.09 335.351 1373 335.751 1371.32 331.221C1370.61 329.3 1370.83 325.674 1370.83 324.146C1370.86 185.299 1370.85 114.129 1370.81 110.634C1370.74 104.791 1371.71 100.877 1378.23 100.869C1411.93 100.859 1466.54 100.875 1542.05 100.917C1573.76 100.933 1608.13 110.466 1624.05 140.431C1631.89 155.19 1634.2 173.502 1632.43 190.302C1629.45 218.466 1613.53 238.403 1586.87 247.647C1584.03 248.629 1582.38 249.443 1581.91 250.088C1580.09 252.634 1581.33 254.474 1583.12 256.931C1605.78 288.049 1622.8 311.388 1634.19 326.947C1637.3 331.213 1636.62 335.343 1630.57 335.351C1617.04 335.361 1601.55 335.367 1584.12 335.367C1576.06 335.367 1572.09 335.895 1567.6 329.876C1541.7 295.114 1525.45 273.318 1518.87 264.487C1516 260.645 1512.92 260.205 1507.93 260.205C1469.08 260.258 1445.21 260.256 1436.31 260.197ZM1432.15 180.369C1432.15 194.461 1432.2 204.433 1432.28 210.287C1432.32 212.549 1433.34 213.683 1435.34 213.688C1456.3 213.709 1489.27 213.72 1534.25 213.72C1556.3 213.72 1572.02 204.58 1572.03 180.385C1572.03 156.198 1556.31 147.05 1534.26 147.042C1489.27 147.031 1456.31 147.034 1435.35 147.05C1433.35 147.055 1432.33 148.189 1432.29 150.452C1432.2 156.3 1432.16 166.272 1432.15 180.369Z" fill="#CCFF00"/>
<path d="M1732.91 147.354C1730.84 147.346 1729.15 148.579 1729.15 150.684C1729.13 162.732 1729.13 176.599 1729.15 192.286C1729.15 194.976 1730.36 195.992 1733.04 196.072C1734.05 196.099 1735.67 196.112 1737.91 196.112C1753.44 196.107 1803.08 196.104 1886.83 196.104C1891.82 196.104 1895.65 196.056 1896.63 201.05C1896.76 201.696 1896.82 203.331 1896.8 205.957C1896.76 211.959 1896.77 219.371 1896.83 228.191C1896.87 233.937 1896.22 237.923 1889.72 237.923C1785.63 237.918 1733.43 237.915 1733.1 237.915C1729.76 237.923 1729.12 239.708 1729.12 242.789C1729.15 269.324 1729.15 283.106 1729.11 284.136C1728.99 287.833 1730.75 288.49 1734.36 288.49C1822.77 288.5 1878.1 288.503 1900.34 288.498C1906.97 288.498 1907.18 292.716 1907.19 298.502C1907.19 312.423 1907.18 322.313 1907.17 328.171C1907.15 335.735 1901.97 335.375 1895.49 335.375C1784.21 335.353 1712.95 335.356 1681.74 335.383C1674.36 335.391 1668.83 336.071 1668.83 327.363C1668.83 202.848 1668.84 129.613 1668.85 107.656C1668.85 100.317 1674.97 100.837 1680.5 100.845C1701.66 100.893 1774.8 100.901 1899.92 100.869C1906.86 100.869 1907.22 104.751 1907.21 110.858C1907.16 129.768 1907.15 139.569 1907.16 140.263C1907.21 143.283 1906.22 145.377 1904.19 146.546C1903.23 147.095 1900.85 147.37 1897.03 147.37C1802.68 147.402 1747.98 147.397 1732.91 147.354Z" fill="#CCFF00"/>
<path d="M2077.81 271.714C2079.09 271.714 2080.04 271.066 2080.66 269.769C2114.81 198.553 2140.93 144.121 2159.03 106.472C2161.77 100.757 2166.72 100.861 2173.17 100.869C2186.77 100.885 2202.23 100.893 2219.55 100.893C2226.07 100.901 2229.6 104.639 2226.42 111.074C2159.29 246.655 2123.73 318.469 2119.74 326.515C2116.88 332.301 2113.5 335.335 2106.6 335.359C2104.31 335.364 2094.71 335.364 2077.8 335.359C2060.89 335.359 2051.29 335.356 2049 335.351C2042.1 335.327 2038.72 332.293 2035.86 326.507C2031.88 318.455 1996.34 246.631 1929.24 111.034C1926.06 104.599 1929.6 100.861 1936.12 100.853C1953.43 100.859 1968.89 100.856 1982.5 100.845C1988.94 100.837 1993.89 100.733 1996.64 106.448C2014.72 144.102 2040.83 198.543 2074.96 269.769C2075.58 271.066 2076.53 271.714 2077.81 271.714Z" fill="#CCFF00"/>
<path d="M795.945 175.575C797.82 176.775 799.59 175.511 800.952 173.862C814.658 157.327 838.217 151.212 858.948 150.604C863.44 150.47 875.391 150.444 894.804 150.524C919.196 150.62 943.668 156.638 960.01 175.735C973.828 191.87 978.338 213.552 978.362 234.305C978.405 264.175 978.402 295.72 978.354 328.94C978.346 334.838 974.173 335.359 969.006 335.359C946.005 335.391 931.775 335.369 926.317 335.295C920.694 335.223 920.077 331.189 920.085 326.171C920.128 301.536 920.125 273.115 920.077 240.908C920.053 222.596 911.818 206.893 894.123 200.546C888.387 198.487 881.605 197.427 873.776 197.369C866.379 197.315 859.007 197.294 851.659 197.305C842.19 197.321 836.249 197.457 833.835 197.713C809.427 200.306 794.663 213.856 794.647 239.316C794.615 294.247 794.615 323.802 794.647 327.979C794.711 336.031 789.344 335.351 782.431 335.367C758.853 335.399 745.521 335.367 742.434 335.271C736.859 335.095 736.322 331.141 736.322 326.171C736.333 263.449 736.333 210.196 736.322 166.411C736.322 161.923 736.434 159.33 736.659 158.631C737.98 154.589 741.273 154.525 745.406 154.493C751.265 154.451 765.662 154.469 788.599 154.549C793.95 154.573 794.727 158.863 794.647 163.481C794.594 166.726 794.602 170.012 794.671 173.342C794.693 174.302 795.117 175.047 795.945 175.575Z" fill="#CCFF00"/>
<path d="M1186 318.583C1185.8 316.022 1183.57 314.661 1181.67 316.87C1173.3 326.651 1161.64 332.573 1149.3 335.495C1139.51 337.805 1130.23 339.04 1121.47 339.2C1111.82 339.376 1095.27 339.427 1071.82 339.352C1043.44 339.264 1014.53 328.9 1007.94 297.99C1006.19 289.816 1006.2 281.526 1007.97 273.123C1014.21 243.453 1044.03 232.056 1071.03 230.968C1084.48 230.429 1120.11 229.076 1177.94 226.91C1181.23 226.787 1183.53 225.419 1184.84 222.804C1185.71 221.097 1185.93 218.319 1185.52 214.472C1183.7 197.249 1167.44 192.831 1152.93 192.374C1150.61 192.305 1138.02 192.276 1115.16 192.286C1102.73 192.294 1093.7 192.214 1084.17 196.208C1076.8 199.297 1071.73 204.35 1068.97 211.367C1066.97 216.449 1066.19 221.123 1059.19 221.163C1048.59 221.217 1034.71 221.233 1017.55 221.211C1012.34 221.201 1010.16 218.706 1010.99 213.728C1013.29 199.919 1019.15 188.023 1028.58 178.04C1047.35 158.167 1075.76 151.028 1102.48 150.612C1112.19 150.457 1129.54 150.433 1154.54 150.54C1192.84 150.708 1234.41 164.194 1242.4 207.149C1243.32 212.117 1243.74 220.571 1243.65 232.512C1243.58 241.573 1243.57 273.253 1243.62 327.555C1243.62 333.574 1241.21 335.495 1235.25 335.415C1230.16 335.345 1216.01 335.329 1192.81 335.367C1186.75 335.375 1185.85 331.389 1185.98 325.97C1186.08 322.113 1186.08 319.65 1186 318.583ZM1185.65 264.119C1185.51 260.765 1183.54 259.188 1180.2 259.332C1172.5 259.674 1141.87 260.899 1088.3 263.006C1079.04 263.374 1066.42 266.288 1064.44 277.229C1062.97 285.339 1065.11 291.502 1070.86 295.717C1075.23 298.91 1082.26 300.479 1087.66 300.503C1103.68 300.562 1120.77 300.578 1138.92 300.551C1150.89 300.535 1163.66 299.23 1173.59 291.771C1182.15 285.341 1186.17 276.124 1185.65 264.119Z" fill="#CCFF00"/>
<g clip-path="url(#clip1_56_12)">
<path d="M335.964 145.545L109.036 275.875V145.545L222.499 78.8463L335.964 145.545Z" fill="#CCFF00"/>
<path opacity="0.6" d="M335.965 248.277L222.501 182.345L109.038 248.277V348.353C109.038 362.032 123.841 370.585 135.691 363.751L335.967 248.279L335.965 248.277Z" fill="#CCFF00"/>
</g>
<defs>
<clipPath id="clip0_56_12">
<rect width="382" height="382" fill="white" transform="translate(31.5 31.5)"/>
</clipPath>
<clipPath id="clip1_56_12">
<rect width="382" height="382" fill="white" transform="translate(31.5 31.5)"/>
</clipPath>
</defs>
</svg>
