<svg width="2232" height="445" viewBox="0 0 2232 445" fill="none" xmlns="http://www.w3.org/2000/svg">
<path d="M15.4445 331V121H62.2445V303.1L59.8445 331H15.4445ZM104.845 334.6C92.4445 334.6 82.0445 331.5 73.6445 325.3C65.2445 318.9 58.9445 309.8 54.7445 298C50.5445 286.2 48.4445 272.2 48.4445 256C48.4445 239.6 50.5445 225.6 54.7445 214C58.9445 202.2 65.2445 193.2 73.6445 187C82.0445 180.6 92.4445 177.4 104.845 177.4C118.845 177.4 130.945 180.6 141.145 187C151.345 193.2 159.145 202.2 164.545 214C169.945 225.6 172.645 239.6 172.645 256C172.645 272.2 169.945 286.2 164.545 298C159.145 309.8 151.345 318.9 141.145 325.3C130.945 331.5 118.845 334.6 104.845 334.6ZM92.8445 291.4C98.8445 291.4 104.145 289.9 108.745 286.9C113.345 283.9 117.045 279.8 119.845 274.6C122.645 269.2 124.045 263 124.045 256C124.045 249 122.745 242.9 120.145 237.7C117.545 232.3 113.845 228.1 109.045 225.1C104.445 222.1 99.1445 220.6 93.1445 220.6C87.1445 220.6 81.7445 222.1 76.9445 225.1C72.3445 228.1 68.7445 232.3 66.1445 237.7C63.5445 243.1 62.2445 249.2 62.2445 256C62.2445 263 63.5445 269.2 66.1445 274.6C68.7445 279.8 72.3445 283.9 76.9445 286.9C81.5445 289.9 86.8445 291.4 92.8445 291.4ZM225.51 394.6C219.11 394.6 212.31 393.4 205.11 391C198.11 388.6 192.21 386 187.41 383.2L204.81 345.1C207.61 347.1 210.31 348.6 212.91 349.6C215.71 350.6 218.21 351.1 220.41 351.1C224.21 351.1 227.61 350.1 230.61 348.1C233.61 346.3 236.01 343.3 237.81 339.1L255.51 297.4L299.61 181H351.51L285.21 340C280.81 350.8 276.21 360.3 271.41 368.5C266.61 376.7 260.61 383.1 253.41 387.7C246.41 392.3 237.11 394.6 225.51 394.6ZM243.21 331L173.01 181H224.91L272.01 297.4L287.91 331H243.21Z" fill="black"/>
<path d="M472.851 154.462C474.678 154.446 475.999 152.861 475.975 151.124C475.879 142.736 475.751 134.373 478.675 126.001C485.043 107.745 500.96 100.95 519.337 100.854C519.492 100.854 543.836 100.88 592.369 100.934C598.281 100.942 598.625 105.528 598.65 110.05C598.687 117.776 598.676 125.513 598.617 133.26C598.561 139.591 594.556 140.119 588.973 140.111C579.67 140.09 563.363 140.082 540.052 140.087C538.813 140.087 537.513 140.669 536.151 141.832C533.948 143.721 534.188 147.386 534.236 150.276C534.3 153.749 536.255 154.478 539.563 154.486C568.321 154.502 609.531 154.496 663.191 154.47C667.308 154.464 669.778 154.614 670.601 154.918C674.253 156.27 674.39 159.44 674.39 163.362C674.374 244.07 674.376 298.937 674.398 327.964C674.398 332.862 672.192 335.319 667.781 335.335C657.084 335.372 643.552 335.378 627.183 335.351C619.982 335.343 616.113 335.423 616.121 327.443C616.142 309.062 616.142 266.885 616.121 200.914C616.121 197.862 614.494 196.336 611.242 196.336C574.596 196.288 550.367 196.275 538.554 196.296C534.837 196.304 534.228 197.897 534.228 201.435C534.228 220.313 534.234 261.867 534.244 326.099C534.244 331.165 533.692 335.271 527.932 335.303C515.169 335.378 500.555 335.388 484.09 335.335C481.855 335.327 479.532 335.279 477.994 333.806C476.659 332.531 475.991 331.112 475.991 329.548C475.975 256.065 475.973 212.909 475.983 200.082C475.991 196.849 473.957 196.256 471.033 196.28C469.751 196.291 461.484 196.302 446.232 196.312C439.623 196.312 438.862 192.423 439.103 186.524C439.129 185.868 439.121 178.019 439.079 162.977C439.063 156.719 440.817 154.478 446.889 154.486C459.044 154.507 467.698 154.499 472.851 154.462Z" fill="black"/>
<path d="M674.742 137.718C674.742 139.301 674.112 140.82 672.991 141.94C671.871 143.059 670.351 143.688 668.766 143.688H621.776C620.991 143.688 620.214 143.534 619.489 143.234C618.764 142.934 618.105 142.494 617.55 141.94C616.995 141.385 616.555 140.727 616.255 140.003C615.954 139.278 615.8 138.502 615.8 137.718V106.856C615.8 106.072 615.954 105.295 616.255 104.571C616.555 103.847 616.995 103.188 617.55 102.634C618.105 102.08 618.764 101.64 619.489 101.34C620.214 101.04 620.991 100.885 621.776 100.885H668.766C670.351 100.885 671.871 101.514 672.991 102.634C674.112 103.754 674.742 105.272 674.742 106.856V137.718Z" fill="black"/>
<path d="M1307.35 329.308C1307.35 330.911 1306.71 332.448 1305.57 333.581C1304.44 334.714 1302.9 335.351 1301.3 335.351H1255.09C1253.49 335.351 1251.95 334.714 1250.82 333.581C1249.68 332.448 1249.04 330.911 1249.04 329.308V106.92C1249.04 105.318 1249.68 103.781 1250.82 102.647C1251.95 101.514 1253.49 100.877 1255.09 100.877H1301.3C1302.9 100.877 1304.44 101.514 1305.57 102.647C1306.71 103.781 1307.35 105.318 1307.35 106.92V329.308Z" fill="black"/>
<path d="M1408.31 260.197C1406.04 260.181 1404.15 261.254 1404.15 263.599C1404.17 281.724 1404.16 303.227 1404.12 328.108C1404.12 332.883 1401.76 335.289 1397.06 335.327C1391.01 335.38 1376.64 335.391 1353.94 335.359C1349.09 335.351 1345 335.751 1343.32 331.221C1342.61 329.3 1342.83 325.674 1342.83 324.146C1342.86 185.299 1342.85 114.129 1342.81 110.634C1342.74 104.791 1343.71 100.877 1350.23 100.869C1383.93 100.859 1438.54 100.875 1514.05 100.917C1545.76 100.933 1580.13 110.466 1596.05 140.431C1603.89 155.19 1606.2 173.502 1604.43 190.302C1601.45 218.466 1585.53 238.403 1558.87 247.647C1556.03 248.629 1554.38 249.443 1553.91 250.088C1552.09 252.634 1553.33 254.474 1555.12 256.932C1577.78 288.05 1594.8 311.388 1606.19 326.947C1609.3 331.213 1608.62 335.343 1602.57 335.351C1589.04 335.361 1573.55 335.367 1556.12 335.367C1548.06 335.367 1544.09 335.895 1539.6 329.876C1513.7 295.114 1497.45 273.318 1490.87 264.487C1488 260.645 1484.92 260.205 1479.93 260.205C1441.08 260.258 1417.21 260.256 1408.31 260.197ZM1404.15 180.369C1404.15 194.461 1404.2 204.433 1404.28 210.287C1404.32 212.549 1405.34 213.683 1407.34 213.688C1428.3 213.709 1461.27 213.72 1506.25 213.72C1528.3 213.72 1544.02 204.58 1544.03 180.385C1544.03 156.198 1528.31 147.05 1506.26 147.042C1461.27 147.031 1428.31 147.034 1407.35 147.05C1405.35 147.056 1404.33 148.189 1404.29 150.452C1404.2 156.3 1404.16 166.272 1404.15 180.369Z" fill="black"/>
<path d="M1704.91 147.354C1702.84 147.346 1701.15 148.579 1701.15 150.684C1701.13 162.732 1701.13 176.599 1701.15 192.286C1701.15 194.975 1702.36 195.992 1705.04 196.072C1706.05 196.099 1707.67 196.112 1709.91 196.112C1725.44 196.107 1775.08 196.104 1858.83 196.104C1863.82 196.104 1867.65 196.056 1868.63 201.05C1868.76 201.696 1868.82 203.331 1868.8 205.956C1868.76 211.959 1868.77 219.37 1868.83 228.19C1868.87 233.937 1868.22 237.923 1861.72 237.923C1757.63 237.917 1705.43 237.915 1705.1 237.915C1701.76 237.923 1701.12 239.708 1701.12 242.789C1701.15 269.324 1701.15 283.106 1701.11 284.136C1700.99 287.833 1702.75 288.49 1706.36 288.49C1794.77 288.5 1850.1 288.503 1872.34 288.497C1878.97 288.497 1879.18 292.715 1879.19 298.502C1879.19 312.423 1879.18 322.313 1879.17 328.171C1879.15 335.735 1873.97 335.375 1867.49 335.375C1756.21 335.353 1684.95 335.356 1653.74 335.383C1646.36 335.391 1640.83 336.071 1640.83 327.363C1640.83 202.848 1640.84 129.613 1640.85 107.656C1640.85 100.317 1646.97 100.837 1652.5 100.845C1673.66 100.893 1746.8 100.901 1871.92 100.869C1878.86 100.869 1879.22 104.751 1879.21 110.858C1879.16 129.767 1879.15 139.569 1879.16 140.263C1879.21 143.283 1878.22 145.377 1876.19 146.546C1875.23 147.095 1872.85 147.37 1869.03 147.37C1774.68 147.402 1719.98 147.397 1704.91 147.354Z" fill="black"/>
<path d="M2049.81 271.714C2051.09 271.714 2052.04 271.066 2052.66 269.769C2086.81 198.553 2112.93 144.121 2131.03 106.472C2133.77 100.757 2138.72 100.861 2145.17 100.869C2158.77 100.885 2174.23 100.893 2191.55 100.893C2198.07 100.901 2201.6 104.639 2198.42 111.074C2131.29 246.655 2095.73 318.469 2091.74 326.515C2088.88 332.301 2085.5 335.335 2078.6 335.359C2076.31 335.364 2066.71 335.364 2049.8 335.359C2032.89 335.359 2023.29 335.356 2021 335.351C2014.1 335.327 2010.72 332.293 2007.86 326.507C2003.88 318.455 1968.34 246.631 1901.24 111.034C1898.06 104.599 1901.6 100.861 1908.12 100.853C1925.43 100.859 1940.89 100.856 1954.5 100.845C1960.94 100.837 1965.89 100.733 1968.64 106.448C1986.72 144.102 2012.83 198.543 2046.96 269.769C2047.58 271.066 2048.53 271.714 2049.81 271.714Z" fill="black"/>
<path d="M767.945 175.575C769.82 176.775 771.59 175.511 772.952 173.862C786.658 157.327 810.217 151.212 830.948 150.604C835.44 150.47 847.391 150.444 866.804 150.524C891.196 150.62 915.668 156.638 932.01 175.735C945.828 191.87 950.338 213.552 950.362 234.305C950.405 264.175 950.402 295.719 950.354 328.94C950.346 334.838 946.173 335.359 941.006 335.359C918.005 335.391 903.775 335.369 898.317 335.295C892.694 335.223 892.077 331.189 892.085 326.17C892.128 301.535 892.125 273.115 892.077 240.908C892.053 222.596 883.818 206.893 866.123 200.546C860.387 198.486 853.605 197.427 845.776 197.369C838.379 197.315 831.007 197.294 823.659 197.305C814.19 197.321 808.249 197.457 805.835 197.713C781.427 200.306 766.663 213.856 766.647 239.315C766.615 294.247 766.615 323.801 766.647 327.979C766.711 336.031 761.344 335.351 754.431 335.367C730.853 335.399 717.521 335.367 714.434 335.271C708.859 335.094 708.322 331.141 708.322 326.17C708.333 263.449 708.333 210.196 708.322 166.411C708.322 161.923 708.434 159.33 708.659 158.631C709.98 154.589 713.273 154.525 717.406 154.493C723.265 154.451 737.662 154.469 760.599 154.549C765.95 154.573 766.727 158.863 766.647 163.481C766.594 166.725 766.602 170.012 766.671 173.342C766.693 174.302 767.117 175.047 767.945 175.575Z" fill="black"/>
<path d="M1158 318.583C1157.8 316.022 1155.57 314.661 1153.67 316.87C1145.3 326.651 1133.64 332.573 1121.3 335.495C1111.51 337.805 1102.23 339.04 1093.47 339.2C1083.82 339.376 1067.27 339.427 1043.82 339.352C1015.44 339.264 986.53 328.9 979.937 297.99C978.191 289.815 978.201 281.526 979.969 273.123C986.209 243.453 1016.03 232.056 1043.03 230.968C1056.48 230.429 1092.11 229.076 1149.94 226.91C1153.23 226.787 1155.53 225.418 1156.84 222.804C1157.71 221.097 1157.93 218.319 1157.52 214.472C1155.7 197.248 1139.44 192.83 1124.93 192.374C1122.61 192.305 1110.02 192.276 1087.16 192.286C1074.73 192.294 1065.7 192.214 1056.17 196.208C1048.8 199.297 1043.73 204.35 1040.97 211.367C1038.97 216.449 1038.19 221.123 1031.19 221.163C1020.59 221.217 1006.71 221.233 989.55 221.211C984.343 221.201 982.156 218.706 982.989 213.728C985.291 199.919 991.155 188.023 1000.58 178.04C1019.35 158.167 1047.76 151.028 1074.48 150.611C1084.19 150.457 1101.54 150.433 1126.54 150.539C1164.84 150.708 1206.41 164.194 1214.4 207.149C1215.32 212.116 1215.74 220.571 1215.65 232.512C1215.58 241.572 1215.57 273.253 1215.62 327.555C1215.62 333.574 1213.21 335.495 1207.25 335.415C1202.16 335.345 1188.01 335.329 1164.81 335.367C1158.75 335.375 1157.85 331.389 1157.98 325.97C1158.08 322.113 1158.08 319.65 1158 318.583ZM1157.65 264.119C1157.51 260.765 1155.54 259.188 1152.2 259.332C1144.5 259.674 1113.87 260.898 1060.3 263.006C1051.04 263.374 1038.42 266.287 1036.44 277.228C1034.97 285.339 1037.11 291.501 1042.86 295.717C1047.23 298.91 1054.26 300.479 1059.66 300.503C1075.68 300.562 1092.77 300.578 1110.92 300.551C1122.89 300.535 1135.66 299.23 1145.59 291.771C1154.15 285.341 1158.17 276.124 1157.65 264.119Z" fill="black"/>
</svg>
