<svg width="345" height="343" viewBox="0 0 345 343" fill="none" xmlns="http://www.w3.org/2000/svg">
<g clip-path="url(#clip0_125_44)">
<path d="M51.872 0.305338C52.9525 0.302472 54.0331 0.298526 55.1136 0.293604C58.0604 0.283308 61.007 0.288335 63.9538 0.296052C67.1405 0.301692 70.3273 0.292988 73.514 0.286174C79.7484 0.275161 85.9828 0.277511 92.2172 0.284716C97.2866 0.290331 102.356 0.291077 107.425 0.28838C108.148 0.288 108.871 0.287619 109.615 0.287228C111.084 0.286434 112.552 0.285629 114.02 0.284814C127.777 0.277743 141.533 0.285863 155.289 0.29921C167.079 0.310296 178.869 0.308375 190.659 0.29693C204.365 0.28363 218.072 0.278427 231.778 0.286039C233.241 0.28683 234.704 0.28761 236.168 0.28838C236.887 0.288763 237.607 0.289146 238.349 0.28954C243.408 0.291679 248.468 0.288077 253.528 0.282226C259.699 0.275246 265.87 0.277187 272.042 0.290369C275.187 0.296867 278.333 0.299488 281.478 0.291239C284.364 0.283788 287.249 0.287999 290.134 0.301112C291.172 0.303861 292.21 0.302527 293.248 0.296456C301.931 0.249604 310.415 1.26919 318.124 5.62332C318.559 5.86268 318.993 6.10204 319.441 6.34866C330.401 12.6134 338.703 22.4132 342.618 34.4901C344.291 40.7844 344.736 46.6078 344.703 53.1001C344.707 54.1641 344.712 55.2281 344.717 56.2921C344.73 59.1877 344.728 62.083 344.722 64.9786C344.719 68.1125 344.73 71.2464 344.74 74.3804C344.755 80.5094 344.758 86.6384 344.755 92.7675C344.753 97.7532 344.755 102.739 344.76 107.724C344.761 108.436 344.761 109.147 344.762 109.88C344.764 111.325 344.765 112.77 344.767 114.216C344.78 127.752 344.778 141.288 344.77 154.824C344.764 167.185 344.778 179.546 344.801 191.908C344.825 204.624 344.835 217.34 344.831 230.056C344.828 237.186 344.831 244.315 344.849 251.445C344.864 257.515 344.865 263.585 344.851 269.656C344.843 272.748 344.842 275.839 344.857 278.931C344.94 297.467 344.212 312.784 330.833 326.901C320.59 337.144 308.404 342.039 294.022 342.069C293.027 342.067 292.033 342.066 291.039 342.063C289.971 342.066 288.902 342.069 287.834 342.072C284.91 342.08 281.986 342.079 279.062 342.078C275.904 342.078 272.746 342.085 269.588 342.09C263.405 342.101 257.221 342.104 251.038 342.105C246.01 342.105 240.982 342.108 235.954 342.112C221.688 342.123 207.422 342.129 193.156 342.128C192.388 342.128 191.619 342.128 190.827 342.127C190.057 342.127 189.288 342.127 188.495 342.127C176.027 342.127 163.559 342.139 151.092 342.156C138.28 342.174 125.467 342.183 112.655 342.182C105.466 342.181 98.2775 342.184 91.0887 342.198C84.9672 342.209 78.8457 342.212 72.7242 342.203C69.6038 342.199 66.4835 342.199 63.3631 342.21C60.5007 342.22 57.6385 342.218 54.7761 342.207C53.7464 342.205 52.7167 342.208 51.687 342.214C43.0269 342.269 34.5627 341.236 26.8756 336.895C26.224 336.536 26.224 336.536 25.5593 336.169C14.5966 329.904 6.30389 320.107 2.38131 308.032C0.69666 301.702 0.26688 295.843 0.305338 289.314C0.302471 288.239 0.298527 287.163 0.293607 286.088C0.283332 283.162 0.288328 280.236 0.296055 277.309C0.301703 274.142 0.292985 270.976 0.286175 267.809C0.275171 261.617 0.277507 255.425 0.284717 249.233C0.290334 244.199 0.291077 239.165 0.288381 234.131C0.288001 233.413 0.287622 232.695 0.287231 231.955C0.286437 230.497 0.285632 229.038 0.284816 227.58C0.277749 213.921 0.285861 200.263 0.299212 186.605C0.310305 174.895 0.308369 163.186 0.296931 151.476C0.283638 137.862 0.278426 124.248 0.286042 110.634C0.286833 109.182 0.287611 107.729 0.288381 106.277C0.288955 105.205 0.288955 105.205 0.289541 104.111C0.29168 99.0846 0.288074 94.058 0.282227 89.0314C0.275255 82.9041 0.277172 76.7768 0.290369 70.6494C0.296877 67.5254 0.299473 64.4016 0.29124 61.2776C0.283809 58.4143 0.287965 55.5512 0.301111 52.6879C0.303868 51.6558 0.302509 50.6238 0.296457 49.5917C0.263168 43.44 0.864545 38.0768 3.10253 32.2662C3.30184 31.747 3.50115 31.2278 3.7065 30.6929C8.09595 19.7627 16.7813 10.7256 27.1858 5.39063C27.5598 5.19617 27.9338 5.0017 28.3191 4.80134C36.0708 1.03569 43.4293 0.256098 51.872 0.305338Z" fill="white"/>
<path d="M98.6912 35.1025C98.6907 35.5671 98.6902 36.0316 98.6897 36.5102C98.6884 40.9013 98.7048 45.2919 98.741 49.6828C98.759 51.94 98.7703 54.1967 98.7658 56.454C98.7616 58.6349 98.7757 60.8151 98.802 62.9959C98.8122 64.2273 98.8039 65.4588 98.7953 66.6902C98.8265 71.5109 98.8265 71.5109 101.112 75.597C106.435 80.713 113.473 83.605 120.797 83.7733C124.559 83.652 127.554 83.2192 130.957 81.6403C131.663 81.3307 132.368 81.0212 133.095 80.7023C139.178 77.9512 139.178 77.9512 143.367 72.9532C143.914 70.0524 143.887 67.1943 143.867 64.2492C143.874 63.4068 143.882 62.5644 143.893 61.722C143.915 59.5174 143.915 57.3134 143.911 55.1088C143.91 52.8542 143.931 50.5997 143.949 48.3452C143.983 43.9309 143.993 39.5169 143.988 35.1025C146.933 36.0136 148.811 37.0442 151.163 39.0582C151.726 39.5365 152.29 40.0149 152.871 40.5077C153.696 41.2108 153.696 41.2108 154.537 41.928C155.061 42.32 155.586 42.7119 156.127 43.1157C163.294 49.2494 168.765 60.8765 169.56 70.1373C170.326 84.974 166.102 97.6523 156.173 108.715C153.688 111.246 151.068 113.574 148.283 115.77C144.047 120.17 143.543 123.959 143.641 129.957C143.642 130.734 143.643 131.51 143.644 132.31C143.651 134.404 143.671 136.496 143.7 138.59C143.722 140.335 143.733 142.08 143.744 143.825C143.814 154.048 144.009 164.27 144.492 174.483C144.514 174.943 144.535 175.404 144.557 175.878C144.948 183.869 145.658 191.839 146.332 199.81C146.926 206.834 147.495 213.86 148.043 220.888C148.102 221.639 148.102 221.639 148.161 222.405C148.399 225.453 148.636 228.501 148.872 231.549C149.031 233.605 149.192 235.661 149.352 237.717C149.809 243.576 150.262 249.435 150.712 255.295C150.779 256.168 150.846 257.04 150.913 257.913C151.122 260.631 151.328 263.35 151.533 266.068C151.584 266.723 151.634 267.377 151.686 268.052C152.642 280.862 152.654 290.642 143.969 300.93C140.536 304.662 136.844 306.789 132.198 308.745C131.74 308.956 131.282 309.167 130.81 309.385C123.616 312.311 115.477 310.848 108.504 308.016C101.326 304.75 96.1477 298.531 93.1067 291.371C92.8635 290.833 92.6204 290.295 92.3698 289.742C91.2564 286.487 91.1253 283.187 91.1288 279.775C91.1289 279.301 91.1289 278.827 91.129 278.338C91.177 273.182 91.5922 268.056 92.0023 262.918C92.3332 258.764 92.5984 254.62 92.7577 250.456C93.0122 244.144 93.5746 237.862 94.1239 231.57C94.8396 223.325 95.3624 215.081 95.7534 206.815C95.9825 202.128 96.331 197.475 96.8224 192.807C98.5931 175.879 98.8414 158.782 98.9781 141.773C98.9918 140.113 99.0153 138.454 99.0433 136.795C99.0805 134.451 99.0927 132.108 99.0984 129.763C99.1213 128.72 99.1213 128.72 99.1447 127.655C99.1131 121.985 97.2756 118.235 93.4218 114.115C92.9339 113.713 92.4459 113.312 91.9432 112.898C91.4081 112.438 90.873 111.978 90.3217 111.504C89.8074 111.069 89.2931 110.633 88.7632 110.183C79.7555 102.279 73.8273 90.4715 73.03 78.4772C72.5835 65.6916 77.1407 54.3093 85.3892 44.6815C94.3471 35.1025 94.3471 35.1025 98.6912 35.1025Z" fill="black"/>
<path d="M222.378 160.663C222.833 160.658 223.287 160.652 223.755 160.647C225.252 160.633 226.747 160.642 228.244 160.653C229.288 160.651 230.332 160.648 231.376 160.644C233.562 160.639 235.748 160.646 237.934 160.66C240.73 160.678 243.526 160.668 246.323 160.649C248.479 160.638 250.634 160.642 252.789 160.65C253.82 160.652 254.851 160.649 255.882 160.642C257.326 160.634 258.768 160.646 260.212 160.663C260.846 160.654 260.846 160.654 261.493 160.644C264.902 160.719 266.337 161.823 268.637 164.167C269.08 165.753 269.08 165.753 269.044 167.413C269.038 168.013 269.032 168.613 269.025 169.232C268.999 169.851 268.974 170.471 268.948 171.109C268.941 171.736 268.935 172.363 268.928 173.008C268.829 177.626 268.829 177.626 267.396 179.059C266.782 179.059 266.168 179.059 265.535 179.059C266.156 184.121 268.449 187.704 271.122 191.93C272.735 194.562 273.059 196.273 273.072 199.3C273.077 200.026 273.081 200.752 273.086 201.5C273.087 202.298 273.089 203.096 273.091 203.918C273.094 204.766 273.099 205.614 273.103 206.462C273.116 209.251 273.122 212.039 273.129 214.828C273.131 215.79 273.134 216.753 273.136 217.715C273.148 222.241 273.157 226.768 273.162 231.294C273.168 236.503 273.184 241.712 273.21 246.921C273.228 250.955 273.237 254.99 273.24 259.024C273.241 261.429 273.246 263.834 273.262 266.239C273.277 268.508 273.279 270.777 273.273 273.046C273.272 274.261 273.284 275.476 273.296 276.692C273.239 286.702 270.075 295.145 263.249 302.477C256.838 308.293 248.394 311.137 239.813 310.841C230.418 309.838 223.361 305.855 217.235 298.749C215.219 296.052 213.858 293.315 212.792 290.13C212.64 289.675 212.487 289.22 212.33 288.751C210.883 284.017 210.666 279.629 210.69 274.7C210.687 273.859 210.684 273.017 210.68 272.175C210.671 269.91 210.674 267.645 210.68 265.379C210.685 262.998 210.681 260.616 210.678 258.235C210.674 254.238 210.679 250.242 210.688 246.246C210.698 241.637 210.695 237.029 210.684 232.42C210.676 228.449 210.675 224.477 210.68 220.506C210.682 218.14 210.683 215.775 210.677 213.409C210.671 211.185 210.675 208.962 210.686 206.738C210.689 205.541 210.684 204.344 210.678 203.147C210.721 197.295 211.568 192.845 215.041 188.057C217.124 184.948 217.695 182.778 217.756 179.059C217.161 178.771 217.161 178.771 216.554 178.478C215.274 177.818 215.274 177.818 214.653 177.198C214.446 175.084 214.452 172.961 214.421 170.838C214.398 170.245 214.374 169.652 214.35 169.042C214.343 168.467 214.336 167.891 214.329 167.299C214.316 166.773 214.304 166.247 214.291 165.706C215.28 161.506 218.526 160.606 222.378 160.663Z" fill="black"/>
<path d="M237.607 35.008C238.499 35.004 238.499 35.004 239.408 35C240.337 35.0119 240.337 35.0119 241.286 35.024C241.903 35.0161 242.52 35.0082 243.156 35C243.751 35.0026 244.346 35.0053 244.96 35.008C245.774 35.0115 245.774 35.0115 246.605 35.015C248.435 35.3398 249.258 35.8774 250.563 37.3297C251.023 38.7571 251.023 38.7571 251.244 40.3986C251.335 41.0069 251.425 41.6152 251.519 42.242C251.61 42.8754 251.701 43.5088 251.795 44.1614C252.017 45.3886 252.246 46.6144 252.48 47.8387C252.6 48.4727 252.719 49.1067 252.842 49.76C253.029 50.7508 253.029 50.7508 253.219 51.7616C253.416 52.8138 253.416 52.8138 253.616 53.8873C254.314 57.6138 255.025 61.3363 255.76 65.054C255.972 66.1456 255.972 66.1456 256.189 67.2593C256.46 68.6456 256.735 70.0309 257.015 71.415C258.017 76.5864 258.975 81.6927 256.645 86.5604C256.048 87.9086 255.459 89.2614 254.874 90.6167C254.556 91.3478 254.238 92.0789 253.91 92.8322C250.694 101.126 250.657 108.882 250.705 117.81C250.699 119.353 250.692 120.897 250.684 122.44C250.665 126.467 250.668 130.494 250.675 134.521C250.681 139.439 250.664 144.357 250.648 149.274C250.635 153.094 250.627 156.912 250.632 160.732C250.631 161.778 250.631 161.778 250.631 162.845C250.631 164.15 250.633 165.455 250.638 166.76C250.637 167.332 250.636 167.904 250.635 168.494C250.637 169.242 250.637 169.242 250.638 170.004C250.563 171.23 250.563 171.23 249.947 172.597C247.304 172.636 244.661 172.661 242.017 172.682C241.264 172.694 240.51 172.705 239.734 172.717C238.656 172.723 238.656 172.723 237.557 172.73C236.892 172.737 236.228 172.744 235.543 172.752C233.933 172.597 233.933 172.597 232.702 171.23C232.587 169.109 232.549 167.048 232.564 164.926C232.563 163.944 232.563 163.944 232.563 162.942C232.563 161.516 232.565 160.089 232.57 158.662C232.577 156.395 232.573 154.127 232.567 151.86C232.55 145.41 232.542 138.961 232.56 132.512C232.57 128.567 232.563 124.624 232.544 120.68C232.54 119.185 232.543 117.69 232.553 116.195C232.613 106.827 231.834 99.2113 228.39 90.6167C228.074 89.8093 227.758 89.0019 227.432 88.1701C226.92 86.8858 226.395 85.6072 225.854 84.3374C224.39 79.1692 225.718 73.8723 226.658 68.7127C226.796 67.9391 226.933 67.1655 227.075 66.3685C228.347 59.2816 229.699 52.2123 231.136 45.1644C231.361 44.0268 231.571 42.8855 231.767 41.7413C231.864 41.1952 231.96 40.649 232.059 40.0864C232.139 39.6039 232.219 39.1213 232.302 38.6242C233.26 35.5212 234.804 35.02 237.607 35.008Z" fill="black"/>
</g>
<defs>
<clipPath id="clip0_125_44">
<rect width="345" height="342.518" fill="white"/>
</clipPath>
</defs>
</svg>
