<svg width="1210" height="163" viewBox="0 0 1210 163" fill="none" xmlns="http://www.w3.org/2000/svg">
<path d="M65.3154 142C78.2628 142 91.2206 141.962 101.12 141.887C106.07 141.849 110.254 141.802 113.29 141.745C114.808 141.717 116.037 141.685 116.93 141.652C117.376 141.636 117.736 141.619 118.005 141.602C118.286 141.583 118.435 141.568 118.484 141.558V141.557C123.443 140.507 126.902 137.198 128.247 132.198L128.248 132.195C128.249 132.19 128.254 132.161 128.261 132.099C128.269 132.028 128.278 131.934 128.286 131.813C128.303 131.573 128.32 131.244 128.337 130.831C128.37 130.005 128.4 128.854 128.429 127.424C128.485 124.563 128.532 120.593 128.57 115.88C128.646 106.454 128.685 94.0652 128.685 81.6592C128.685 69.2531 128.646 56.8316 128.57 47.3418C128.532 42.5966 128.485 38.5855 128.429 35.6768C128.4 34.2223 128.37 33.0457 128.337 32.1914C128.32 31.7642 128.303 31.4202 128.286 31.1641C128.268 30.8935 128.251 30.7545 128.242 30.7129L128.241 30.7109C127.19 25.8924 123.756 22.299 119.3 21.2539C119.317 21.2576 119.304 21.2545 119.224 21.249C119.156 21.2444 119.063 21.2392 118.943 21.2344C118.704 21.2248 118.368 21.2152 117.941 21.2061C117.088 21.1877 115.88 21.1713 114.367 21.1553C111.342 21.1232 107.101 21.0955 102.05 21.0732C91.9486 21.0288 78.6098 21.0048 65.2744 21.001C51.9388 20.9972 38.6067 21.0139 28.5205 21.0527C23.4775 21.0721 19.2467 21.0966 16.2324 21.127C14.725 21.1421 13.523 21.1588 12.6768 21.1768C12.2536 21.1857 11.9216 21.1946 11.6855 21.2041C11.5672 21.2089 11.4752 21.2142 11.4102 21.2188C11.3817 21.2207 11.3624 21.2206 11.3506 21.2217C9.88753 21.5959 8.33102 22.4063 6.96777 23.458C5.60127 24.5123 4.46096 25.7839 3.80664 27.0498C3.45757 27.7252 3.23184 28.0796 3.05371 29.0615C2.86849 30.0826 2.74249 31.7604 2.65918 35.0342C2.49289 41.5691 2.5 54.3353 2.5 80.6182C2.5 98.3136 2.5232 110.854 2.57617 119.113C2.60266 123.243 2.63621 126.301 2.67871 128.397C2.69996 129.446 2.72362 130.251 2.74902 130.828C2.77532 131.426 2.8023 131.736 2.82227 131.831V131.832C3.84137 136.694 7.47665 140.392 12.4082 141.56H12.4092C12.4092 141.56 12.4191 141.562 12.4434 141.565C12.4665 141.569 12.4972 141.572 12.5361 141.576C12.6144 141.584 12.7182 141.593 12.8477 141.602C13.1061 141.619 13.4561 141.636 13.8936 141.652C14.7681 141.685 15.9799 141.717 17.4824 141.745C20.4869 141.802 24.645 141.849 29.5742 141.887C39.432 141.962 52.3682 142 65.3154 142ZM40.6553 129.406C32.6914 129.312 26.628 123.186 26.6279 115.192C26.6279 113.512 26.7667 112.212 27.2285 110.822C27.6862 109.445 28.4532 108.006 29.667 106.033V106.032C30.1206 105.284 30.4441 104.722 30.6875 104.082C30.9292 103.447 31.0998 102.714 31.2178 101.632C31.4562 99.4447 31.4717 95.9228 31.4717 89.0654C31.4717 85.6469 31.4416 82.3424 31.3887 79.7695C31.3622 78.4829 31.3306 77.3808 31.2939 76.54C31.2566 75.6838 31.2157 75.1352 31.1777 74.9258H31.1768L31.1758 74.915C30.8968 73.1679 30.4479 71.8458 29.5225 70.4414C28.5855 69.0195 27.1483 67.4949 24.8525 65.3652C22.6414 63.3408 21.0521 60.9092 20.0566 58.0176C19.5197 56.4858 19.1973 54.3657 19.1016 52.2471C19.0117 50.26 19.1193 48.2288 19.457 46.6348L19.5273 46.3213C20.6087 41.8413 23.232 37.3559 26.4375 34.5859L26.4414 34.583C27.4603 33.7185 28.4969 33 29.3457 32.5479C29.7669 32.3235 30.1643 32.1526 30.5029 32.0693C30.6716 32.0279 30.8499 32.0019 31.0215 32.0146C31.193 32.0275 31.4022 32.0831 31.5684 32.249C31.636 32.3166 31.6721 32.3891 31.6875 32.4229C31.706 32.4636 31.719 32.5031 31.7285 32.5352C31.7477 32.5998 31.7627 32.6731 31.7754 32.7461C31.8012 32.8941 31.8252 33.0901 31.8477 33.3252C31.8928 33.7982 31.9357 34.4668 31.9756 35.3076C32.0554 36.9914 32.1235 39.3887 32.1689 42.3428C32.2603 47.6101 32.3072 50.1683 32.5732 51.5791C32.7023 52.2631 32.8727 52.6142 33.084 52.8623C33.3104 53.1281 33.6159 53.3195 34.1406 53.6406L34.1426 53.6426C34.5024 53.8659 34.8103 53.9994 35.6729 54.0771C36.5687 54.1579 38.0036 54.1729 40.6006 54.1729C43.9896 54.1728 45.7608 54.1152 46.8359 53.8096C47.3471 53.6642 47.674 53.4694 47.9365 53.208C48.2089 52.9368 48.4379 52.5707 48.7188 52.0322V52.0312C48.8749 51.7115 48.9785 51.4846 49.0576 51.1885C49.138 50.8877 49.1977 50.496 49.2402 49.8564C49.3259 48.5681 49.334 46.3723 49.334 42.0791C49.334 39.6393 49.3565 37.3724 49.3906 35.6807C49.4077 34.8355 49.4277 34.1314 49.4492 33.6201C49.4599 33.365 49.4716 33.1538 49.4834 32.9961C49.4893 32.9176 49.495 32.8476 49.502 32.79C49.5071 32.7476 49.5172 32.6671 49.541 32.5957L49.5439 32.5869L49.5479 32.5791C49.6891 32.2024 49.9697 31.9134 50.4014 31.835C50.7773 31.7666 51.1921 31.874 51.6064 32.0527C52.4469 32.4153 53.5985 33.2125 55.1113 34.4229L55.1133 34.4238C57.8778 36.6544 60.6493 41.2657 61.8203 45.5176C62.6378 48.4664 62.6894 52.8574 61.9482 56.0127L61.7891 56.626C61.2521 58.5738 60.6983 60.0112 59.7529 61.4727C58.9311 62.7431 57.8236 64.0156 56.208 65.6553L55.4844 66.3809C53.486 68.3793 52.3128 69.6834 51.5742 70.8564C50.9403 71.8632 50.6189 72.7865 50.3906 74.0078L50.2979 74.5498C50.2137 75.0987 50.1455 76.8424 50.1074 79.4492C50.0697 82.0367 50.0615 85.4313 50.0918 89.2432C50.1373 95.4256 50.168 98.6273 50.2656 100.482C50.3143 101.408 50.3784 101.978 50.4648 102.405C50.5496 102.824 50.6581 103.119 50.8125 103.501L50.8135 103.502C51.1629 104.376 51.9036 105.771 52.4346 106.597L52.4336 106.598C54.4138 109.661 55.1777 111.993 55.1777 115.223C55.1777 119.926 52.9186 124.261 49.0537 126.869C46.3965 128.682 43.9053 129.437 40.6562 129.406H40.6553ZM93.209 126.863C91.836 126.923 91.012 126.943 90.4424 126.85C90.1401 126.8 89.8928 126.716 89.6621 126.585C89.443 126.46 89.2577 126.303 89.0742 126.135C88.8819 125.966 88.702 125.793 88.5498 125.575C88.395 125.354 88.2829 125.107 88.1934 124.801C88.022 124.215 87.92 123.353 87.7852 121.93V121.926C87.6342 120.174 87.3617 117.455 87.1807 115.886L87.1797 115.876C87.0279 114.297 86.8162 112.002 86.6953 110.823V110.82L86.4834 108.609L86.46 108.363L86.6416 108.195L87.8467 107.081V107.08C88.159 106.782 88.4833 106.415 88.75 106.069C89.0252 105.712 89.2078 105.417 89.2715 105.258C89.3007 105.185 89.351 104.944 89.3975 104.438C89.4416 103.956 89.4786 103.29 89.5088 102.418C89.569 100.675 89.5996 98.131 89.5996 94.6357V85.1455H86.6182C84.2207 85.1455 82.5414 84.9559 81.4629 84.3457C80.9009 84.0276 80.4998 83.5961 80.248 83.0371C80.002 82.4906 79.9111 81.851 79.9111 81.1328C79.9113 79.4066 80.8632 78.0719 82.5078 77.4863V77.4854L83.2422 77.2129V52.0312C83.2473 46.1167 83.2803 42.7757 83.4668 40.7129C83.5918 39.3298 83.7893 38.4679 84.1201 37.7715C84.4458 37.0861 84.8937 36.5864 85.4092 35.9551V35.9541C88.3076 32.3232 93.313 31.1719 97.4326 33.1836C99.4691 34.1703 101.21 35.8815 102.287 37.9082L102.288 37.9092L103.105 39.4531L103.163 39.5615V39.6846L103.254 58.6064L103.343 77.2627L104.143 77.6973C105.179 78.251 105.895 79.2192 106.201 80.2617C106.507 81.3041 106.417 82.4685 105.767 83.3896L105.764 83.3926L105.568 83.6426C105.094 84.1979 104.481 84.5678 103.604 84.7988C102.633 85.055 101.32 85.1455 99.4844 85.1455H96.6543V98.7529C96.6589 101.986 96.6889 103.749 96.8564 104.851C96.9641 105.558 97.1234 105.941 97.3428 106.253C97.5827 106.595 97.9028 106.872 98.4375 107.383L98.4453 107.391C98.8581 107.803 99.1833 108.129 99.3008 108.7C99.3546 108.962 99.3623 109.257 99.3496 109.606C99.3368 109.958 99.3019 110.4 99.2568 110.963L99.2559 110.971L99.0635 113.183C98.9993 113.96 98.9382 114.716 98.8926 115.264C98.8128 116.221 98.663 117.654 98.502 118.683L98.4326 119.097C98.2862 120.071 98.168 121.7 98.168 122.7C98.168 123.472 98.1397 124.038 98.0156 124.508C97.8847 125.003 97.6553 125.364 97.3213 125.749H97.3223C97.1476 125.954 96.974 126.149 96.7646 126.305C96.5437 126.469 96.302 126.578 96.001 126.652C95.4451 126.789 94.6143 126.819 93.208 126.863H93.209Z" fill="black" stroke="black"/>
<rect x="2" y="20.5" width="127" height="122" rx="12" stroke="black" stroke-width="3"/>
<path d="M268.622 53.625H232.809V127H216.559V53.625H180.684V37.375H268.622V53.625ZM373.434 90.75C373.434 96.2083 372.497 101.229 370.622 105.812C368.747 110.396 366.142 114.354 362.809 117.688C359.476 121.021 355.517 123.625 350.934 125.5C346.392 127.333 341.434 128.25 336.059 128.25H314.059C308.684 128.25 303.705 127.333 299.122 125.5C294.538 123.625 290.58 121.021 287.247 117.688C283.913 114.354 281.288 110.396 279.372 105.812C277.497 101.229 276.559 96.2083 276.559 90.75V73.625C276.559 68.2083 277.497 63.2083 279.372 58.625C281.288 54 283.913 50.0417 287.247 46.75C290.58 43.4167 294.538 40.8125 299.122 38.9375C303.705 37.0625 308.684 36.125 314.059 36.125H336.059C341.434 36.125 346.392 37.0625 350.934 38.9375C355.517 40.8125 359.476 43.4167 362.809 46.75C366.142 50.0417 368.747 54 370.622 58.625C372.497 63.2083 373.434 68.2083 373.434 73.625V90.75ZM357.184 73.625C357.184 70.4167 356.663 67.5208 355.622 64.9375C354.622 62.3125 353.184 60.0833 351.309 58.25C349.476 56.375 347.247 54.9375 344.622 53.9375C342.038 52.8958 339.184 52.375 336.059 52.375H314.059C310.892 52.375 307.997 52.8958 305.372 53.9375C302.788 54.9375 300.559 56.375 298.684 58.25C296.809 60.0833 295.351 62.3125 294.309 64.9375C293.309 67.5208 292.809 70.4167 292.809 73.625V90.75C292.809 93.9583 293.309 96.875 294.309 99.5C295.351 102.083 296.809 104.312 298.684 106.188C300.559 108.021 302.788 109.458 305.372 110.5C307.997 111.5 310.892 112 314.059 112H335.934C339.101 112 341.976 111.5 344.559 110.5C347.184 109.458 349.434 108.021 351.309 106.188C353.184 104.312 354.622 102.083 355.622 99.5C356.663 96.875 357.184 93.9583 357.184 90.75V73.625ZM483.559 90.75C483.559 96.2083 482.622 101.229 480.747 105.812C478.872 110.396 476.267 114.354 472.934 117.688C469.601 121.021 465.642 123.625 461.059 125.5C456.517 127.333 451.559 128.25 446.184 128.25H424.184C418.809 128.25 413.83 127.333 409.247 125.5C404.663 123.625 400.705 121.021 397.372 117.688C394.038 114.354 391.413 110.396 389.497 105.812C387.622 101.229 386.684 96.2083 386.684 90.75V73.625C386.684 68.2083 387.622 63.2083 389.497 58.625C391.413 54 394.038 50.0417 397.372 46.75C400.705 43.4167 404.663 40.8125 409.247 38.9375C413.83 37.0625 418.809 36.125 424.184 36.125H446.184C451.559 36.125 456.517 37.0625 461.059 38.9375C465.642 40.8125 469.601 43.4167 472.934 46.75C476.267 50.0417 478.872 54 480.747 58.625C482.622 63.2083 483.559 68.2083 483.559 73.625V90.75ZM467.309 73.625C467.309 70.4167 466.788 67.5208 465.747 64.9375C464.747 62.3125 463.309 60.0833 461.434 58.25C459.601 56.375 457.372 54.9375 454.747 53.9375C452.163 52.8958 449.309 52.375 446.184 52.375H424.184C421.017 52.375 418.122 52.8958 415.497 53.9375C412.913 54.9375 410.684 56.375 408.809 58.25C406.934 60.0833 405.476 62.3125 404.434 64.9375C403.434 67.5208 402.934 70.4167 402.934 73.625V90.75C402.934 93.9583 403.434 96.875 404.434 99.5C405.476 102.083 406.934 104.312 408.809 106.188C410.684 108.021 412.913 109.458 415.497 110.5C418.122 111.5 421.017 112 424.184 112H446.059C449.226 112 452.101 111.5 454.684 110.5C457.309 109.458 459.559 108.021 461.434 106.188C463.309 104.312 464.747 102.083 465.747 99.5C466.788 96.875 467.309 93.9583 467.309 90.75V73.625ZM581.934 127H507.809C506.642 127 505.559 126.792 504.559 126.375C503.559 125.958 502.684 125.396 501.934 124.688C501.226 123.938 500.663 123.062 500.247 122.062C499.83 121.062 499.622 119.979 499.622 118.812V37.375H515.872V110.75H581.934V127ZM662.122 53.625H626.309V127H610.059V53.625H574.184V37.375H662.122V53.625ZM763.684 67.5C763.684 71.2083 763.226 74.5208 762.309 77.4375C761.392 80.3542 760.142 82.9375 758.559 85.1875C757.017 87.3958 755.226 89.2917 753.184 90.875C751.142 92.4583 748.997 93.7708 746.747 94.8125C744.538 95.8125 742.288 96.5417 739.997 97C737.747 97.4583 735.622 97.6875 733.622 97.6875L767.559 127H742.434L708.559 97.6875H696.872V81.4375H733.622C735.663 81.2708 737.517 80.8542 739.184 80.1875C740.892 79.4792 742.351 78.5417 743.559 77.375C744.809 76.2083 745.767 74.8125 746.434 73.1875C747.101 71.5208 747.434 69.625 747.434 67.5V57.25C747.434 56.3333 747.309 55.6458 747.059 55.1875C746.851 54.6875 746.559 54.3333 746.184 54.125C745.851 53.875 745.476 53.7292 745.059 53.6875C744.684 53.6458 744.33 53.625 743.997 53.625H690.372V127H674.122V45.5625C674.122 44.4375 674.33 43.375 674.747 42.375C675.163 41.375 675.726 40.5 676.434 39.75C677.184 39 678.059 38.4167 679.059 38C680.059 37.5833 681.142 37.375 682.309 37.375H743.997C747.622 37.375 750.684 38.0417 753.184 39.375C755.684 40.6667 757.705 42.3125 759.247 44.3125C760.83 46.2708 761.955 48.3958 762.622 50.6875C763.33 52.9792 763.684 55.125 763.684 57.125V67.5ZM867.934 127H851.684V105H794.559V127H778.309V82.1875C778.309 75.6458 779.434 69.625 781.684 64.125C783.934 58.625 787.059 53.8958 791.059 49.9375C795.059 45.9792 799.788 42.8958 805.247 40.6875C810.705 38.4792 816.663 37.375 823.122 37.375H859.747C860.872 37.375 861.934 37.5833 862.934 38C863.934 38.4167 864.809 39 865.559 39.75C866.309 40.5 866.892 41.375 867.309 42.375C867.726 43.375 867.934 44.4375 867.934 45.5625V127ZM794.559 88.75H851.684V53.625H823.122C822.622 53.625 821.559 53.7083 819.934 53.875C818.351 54 816.497 54.3542 814.372 54.9375C812.288 55.5208 810.08 56.4167 807.747 57.625C805.413 58.8333 803.267 60.5 801.309 62.625C799.351 64.75 797.726 67.4167 796.434 70.625C795.184 73.7917 794.559 77.6458 794.559 82.1875V88.75ZM967.122 127H908.497C906.997 127 905.372 126.833 903.622 126.5C901.913 126.125 900.205 125.562 898.497 124.812C896.83 124.062 895.226 123.104 893.684 121.938C892.142 120.729 890.767 119.292 889.559 117.625C888.392 115.917 887.455 113.958 886.747 111.75C886.038 109.5 885.684 106.979 885.684 104.188V60.1875C885.684 58.6875 885.851 57.0833 886.184 55.375C886.559 53.625 887.122 51.9167 887.872 50.25C888.622 48.5417 889.601 46.9167 890.809 45.375C892.017 43.8333 893.455 42.4792 895.122 41.3125C896.83 40.1042 898.788 39.1458 900.997 38.4375C903.205 37.7292 905.705 37.375 908.497 37.375H967.122V53.625H908.497C906.372 53.625 904.747 54.1875 903.622 55.3125C902.497 56.4375 901.934 58.1042 901.934 60.3125V104.188C901.934 106.271 902.497 107.896 903.622 109.062C904.788 110.188 906.413 110.75 908.497 110.75H967.122V127ZM1056.18 90.375H1004.87V74H1056.18V90.375ZM1063.5 127H1004.87C1002.62 127 1000.16 126.604 997.497 125.812C994.83 125.021 992.351 123.729 990.059 121.938C987.809 120.104 985.913 117.75 984.372 114.875C982.872 111.958 982.122 108.396 982.122 104.188V45.5625C982.122 44.4375 982.33 43.375 982.747 42.375C983.163 41.375 983.726 40.5 984.434 39.75C985.184 39 986.059 38.4167 987.059 38C988.059 37.5833 989.142 37.375 990.309 37.375H1063.5V53.625H998.372V104.188C998.372 106.312 998.934 107.938 1000.06 109.062C1001.18 110.188 1002.83 110.75 1005 110.75H1063.5V127ZM1091 118.812C1091 119.938 1090.77 121 1090.31 122C1089.89 122.958 1089.31 123.812 1088.56 124.562C1087.85 125.271 1087 125.833 1086 126.25C1085.04 126.667 1084.02 126.875 1082.93 126.875C1081.81 126.875 1080.75 126.667 1079.75 126.25C1078.79 125.833 1077.93 125.271 1077.18 124.562C1076.48 123.812 1075.91 122.958 1075.5 122C1075.08 121 1074.87 119.938 1074.87 118.812C1074.87 117.729 1075.08 116.708 1075.5 115.75C1075.91 114.75 1076.48 113.896 1077.18 113.188C1077.93 112.438 1078.79 111.854 1079.75 111.438C1080.75 110.979 1081.81 110.75 1082.93 110.75C1084.02 110.75 1085.04 110.979 1086 111.438C1087 111.854 1087.85 112.438 1088.56 113.188C1089.31 113.896 1089.89 114.75 1090.31 115.75C1090.77 116.708 1091 117.729 1091 118.812ZM1169.09 127H1156.9V110.5H1114.06V127H1101.87V93.3906C1101.87 88.4844 1102.72 83.9688 1104.4 79.8438C1106.09 75.7188 1108.43 72.1719 1111.43 69.2031C1114.43 66.2344 1117.98 63.9219 1122.07 62.2656C1126.17 60.6094 1130.64 59.7812 1135.48 59.7812H1162.95C1163.79 59.7812 1164.59 59.9375 1165.34 60.25C1166.09 60.5625 1166.75 61 1167.31 61.5625C1167.87 62.125 1168.31 62.7812 1168.62 63.5312C1168.93 64.2812 1169.09 65.0781 1169.09 65.9219V127ZM1114.06 98.3125H1156.9V71.9688H1135.48C1135.11 71.9688 1134.31 72.0312 1133.09 72.1562C1131.9 72.25 1130.51 72.5156 1128.92 72.9531C1127.36 73.3906 1125.7 74.0625 1123.95 74.9688C1122.2 75.875 1120.59 77.125 1119.12 78.7188C1117.65 80.3125 1116.43 82.3125 1115.47 84.7188C1114.53 87.0938 1114.06 89.9844 1114.06 93.3906V98.3125ZM1200.34 45.5625H1184.09V30.875H1200.34V45.5625ZM1200.34 127H1184.09V59.4375H1200.34V127Z" fill="black"/>
</svg>
